<?xml version="1.0" encoding="UTF-8"?>
<svg xmlns="http://www.w3.org/2000/svg" xmlns:xlink="http://www.w3.org/1999/xlink" width="15pt" height="15pt" viewBox="0 0 15 15" version="1.1">
<g id="surface1">
<path style=" stroke:none;fill-rule:nonzero;fill:rgb(0%,0%,0%);fill-opacity:1;" d="M 0 0 L 14.882812 0 L 14.882812 14.882812 L 0 14.882812 Z M 0 0 "/>
<path style=" stroke:none;fill-rule:nonzero;fill:rgb(100%,100%,100%);fill-opacity:1;" d="M 13.835938 6.914062 C 13.601562 3.761719 11.054688 1.253906 7.851562 1.027344 L 7.851562 0.09375 L 6.929688 0.09375 L 6.929688 1.027344 C 6.207031 1.074219 5.5 1.242188 4.832031 1.523438 L 5.199219 2.355469 C 5.75 2.125 6.332031 1.980469 6.929688 1.9375 L 6.929688 2.847656 C 4.746094 3.066406 3.015625 4.765625 2.792969 6.914062 L 1.871094 6.914062 C 1.917969 6.347656 2.054688 5.792969 2.273438 5.269531 L 1.421875 4.917969 C 1.15625 5.550781 0.992188 6.226562 0.945312 6.914062 L 0 6.914062 L 0 7.824219 L 0.949219 7.824219 C 1.179688 10.976562 3.726562 13.484375 6.929688 13.710938 L 6.929688 14.644531 L 7.851562 14.644531 L 7.851562 13.710938 C 11.054688 13.484375 13.601562 10.976562 13.835938 7.824219 L 14.78125 7.824219 L 14.78125 6.914062 Z M 6.929688 12.804688 C 4.238281 12.578125 2.101562 10.476562 1.871094 7.824219 L 2.792969 7.824219 C 3.019531 9.976562 4.746094 11.675781 6.929688 11.894531 Z M 7.390625 11.007812 C 5.351562 11.007812 3.695312 9.378906 3.695312 7.371094 C 3.695312 5.359375 5.351562 3.730469 7.390625 3.730469 C 9.433594 3.730469 11.085938 5.359375 11.085938 7.371094 C 11.085938 9.378906 9.429688 11.003906 7.390625 11.007812 Z M 7.851562 12.804688 L 7.851562 11.894531 C 10.039062 11.675781 11.765625 9.976562 11.988281 7.824219 L 12.910156 7.824219 C 12.683594 10.476562 10.546875 12.578125 7.851562 12.804688 Z M 11.988281 6.914062 C 11.765625 4.765625 10.039062 3.066406 7.851562 2.847656 L 7.851562 1.9375 C 10.546875 2.160156 12.683594 4.265625 12.910156 6.914062 Z M 11.988281 6.914062 "/>
<path style=" stroke:none;fill-rule:nonzero;fill:rgb(100%,100%,100%);fill-opacity:1;" d="M 4.445312 2.746094 L 3.953125 1.976562 C 3.671875 2.148438 3.40625 2.34375 3.15625 2.558594 L 3.761719 3.246094 C 3.976562 3.0625 4.203125 2.894531 4.445312 2.746094 Z M 4.445312 2.746094 "/>
<path style=" stroke:none;fill-rule:nonzero;fill:rgb(100%,100%,100%);fill-opacity:1;" d="M 3.164062 3.839844 L 2.457031 3.253906 C 2.242188 3.503906 2.046875 3.765625 1.875 4.046875 L 2.664062 4.519531 C 2.8125 4.28125 2.976562 4.054688 3.164062 3.839844 Z M 3.164062 3.839844 "/>
<path style=" stroke:none;fill-rule:nonzero;fill:rgb(100%,100%,100%);fill-opacity:1;" d="M 7.851562 5.550781 L 6.929688 5.550781 L 6.929688 6.914062 L 5.542969 6.914062 L 5.542969 7.824219 L 6.929688 7.824219 L 6.929688 9.1875 L 7.851562 9.1875 L 7.851562 7.824219 L 9.238281 7.824219 L 9.238281 6.914062 L 7.851562 6.914062 Z M 7.851562 5.550781 "/>
</g>
</svg>
