<svg width="50" height="50" xmlns="http://www.w3.org/2000/svg">

 <g>
  <title>background</title>
  <rect fill="#000000" id="canvas_background" height="52" width="52" y="-1" x="-1"/>
 </g>
 <g>
  <title>Layer 1</title>
  <g stroke="null" id="svg_1">
   <path fill="#ffffff" stroke="null" id="svg_2" d="m24.502438,25.450341c7.194088,0 13.026597,-5.249493 13.026597,-11.725118c0,-6.475763 -1.914899,-11.725255 -13.026597,-11.725255s-13.026967,5.249493 -13.026967,11.725255c0,6.475626 5.832509,11.725118 13.026967,11.725118z"/>
   <path stroke="null" id="svg_3" d="m-0.102288,43.353251c-0.002218,-0.394828 -0.004437,-0.111242 0,0l0,0z"/>
   <path stroke="null" id="svg_4" d="m49.106055,43.661633c0.007025,-0.108091 0.002403,-0.749928 0,0l0,0z"/>
   <path fill="#ffffff" stroke="null" id="svg_5" d="m49.07832,42.87979c-0.24125,-11.2807 -2.22936,-14.49509 -17.44299,-16.52978c0,0 -2.14155,2.02223 -7.13308,2.02223s-7.13345,-2.02223 -7.13345,-2.02223c-15.04761,2.0125 -17.15662,5.17921 -17.43393,16.16331c-0.02274,0.89692 -0.03328,0.94405 -0.03734,0.83993c0.00092,0.19509 0.00203,0.55594 0.00203,1.18517c0,0 3.622,5.41088 24.60269,5.41088c20.98032,0 24.6027,-5.41088 24.6027,-5.41088c0,-0.40428 0.00037,-0.6854 0.00092,-0.87665c-0.00407,0.06439 -0.0122,-0.06042 -0.02755,-0.78198z"/>
  </g>
  <g id="svg_6"/>
  <g id="svg_7"/>
  <g id="svg_8"/>
  <g id="svg_9"/>
  <g id="svg_10"/>
  <g id="svg_11"/>
  <g id="svg_12"/>
  <g id="svg_13"/>
  <g id="svg_14"/>
  <g id="svg_15"/>
  <g id="svg_16"/>
  <g id="svg_17"/>
  <g id="svg_18"/>
  <g id="svg_19"/>
  <g id="svg_20"/>
 </g>
</svg>